<svg xmlns="http://www.w3.org/2000/svg" xmlns:xlink="http://www.w3.org/1999/xlink" viewBox="0 0 280 69" preserveAspectRatio="xMidYMid" style="display: block; shape-rendering: auto; background: transparent;" width="280" height="69"><style type="text/css">
  .ld-text text {
    text-anchor: middle;
    dominant-baseline: middle;
    font-size: 54px;
    opacity: 0;
    user-select: none;
    pointer-events: none;
  }
</style>
<g style="transform-origin:140px 34.5px;transform:scale(1)" class="ld-text">
<g transform="translate(140,34.5)">
  <g transform="scale(0.6750) translate(0,0)"><g class="path" style="opacity: 1; transform-origin: -175.8px 9.37px; transform: matrix3d(1, 0, 0, 0, 0, 1, 0, 0, 0, 0, 1, 0, 0, 0, 0, 1); animation: 0.961538s linear -0.576923s infinite normal forwards running animate-nltrwwb991; transform-box: view-box;"><path d="M32.96 30.75L32.96 30.75Q25.92 30.75 25.28 24.59L25.28 24.59Q21.76 30.75 16.40 30.75Q11.04 30.75 7.88 27.51Q4.72 24.27 4.72 18.43L4.72 18.43Q4.72 9.31 9.20 4.11Q13.68-1.09 20.80-1.09L20.80-1.09Q26.64-1.09 28.56 4.43L28.56 4.43Q28.96 2.03 29.44-0.37L29.44-0.37Q35.36-0.37 38.24-0.85L38.24-0.85L39.28-1.09L33.76 29.15Q36.16 28.91 37.76 26.91L37.76 26.91L38.96 27.87Q36.56 30.75 32.96 30.75 zM13.76 22.51Q13.76 26.11 14.68 27.51Q15.60 28.91 17.52 28.91Q19.44 28.91 21.44 26.83L21.44 26.83Q24.08 24.11 25.68 19.95L25.68 19.95Q25.92 18.91 26.60 14.95Q27.28 10.99 27.76 8.43L27.76 8.43Q27.52 5.39 26.08 3.15Q24.64 0.91 22.48 0.91L22.48 0.91Q18.56 0.91 16.16 7.91Q13.76 14.91 13.76 22.51L13.76 22.51" style="fill: rgb(230, 60, 117);" transform="translate(-197.800,-15.015)"></path></g><g class="path" style="opacity: 1; transform-origin: -142.8px 5.22px; transform: matrix3d(1, 0, 0, 0, 0, 1, 0, 0, 0, 0, 1, 0, 0, 0, 0, 1); animation: 0.961538s linear -0.519231s infinite normal forwards running animate-nltrwwb991; transform-box: view-box;"><path d="M58.08 27.15Q57.04 28.51 55.24 29.63Q53.44 30.75 50.56 30.75Q47.68 30.75 45.68 28.91Q43.68 27.07 43.68 23.71L43.68 23.71Q43.68 23.07 43.84 21.63L43.84 21.63L49.04-7.17Q50.48-15.09 53-18.45Q55.52-21.81 59.68-21.81L59.68-21.81Q62.56-21.81 64.44-19.65Q66.32-17.49 66.32-13.09Q66.32-8.69 62.92-0.53Q59.52 7.63 59.52 11.39L59.52 11.39L58.08 11.39Q58.08 7.15 61.44-0.73Q64.80-8.61 64.80-13.33L64.80-13.33Q64.80-16.21 63.48-18.29Q62.16-20.37 60.24-20.37L60.24-20.37Q60.16-18.29 57.48-1.69Q54.80 14.91 52.16 29.15L52.16 29.15Q54.40 29.15 56.32 26.83Q58.24 24.51 59.04 22.19L59.04 22.19L59.92 19.79L61.36 20.43Q61.12 21.55 60.12 23.67Q59.12 25.79 58.08 27.15" style="fill: rgb(230, 60, 117);" transform="translate(-197.800,-15.015)"></path></g><g class="path" style="opacity: 1; transform-origin: -114.84px 9.37px; transform: matrix3d(1, 0, 0, 0, 0, 1, 0, 0, 0, 0, 1, 0, 0, 0, 0, 1); animation: 0.961538s linear -0.461538s infinite normal forwards running animate-nltrwwb991; transform-box: view-box;"><path d="M93.92 30.75L93.92 30.75Q86.88 30.75 86.24 24.59L86.24 24.59Q82.72 30.75 77.36 30.75Q72 30.75 68.84 27.51Q65.68 24.27 65.68 18.43L65.68 18.43Q65.68 9.31 70.16 4.11Q74.64-1.09 81.76-1.09L81.76-1.09Q87.60-1.09 89.52 4.43L89.52 4.43Q89.92 2.03 90.40-0.37L90.40-0.37Q96.32-0.37 99.20-0.85L99.20-0.85L100.24-1.09L94.72 29.15Q97.12 28.91 98.72 26.91L98.72 26.91L99.92 27.87Q97.52 30.75 93.92 30.75 zM74.72 22.51Q74.72 26.11 75.64 27.51Q76.56 28.91 78.48 28.91Q80.40 28.91 82.40 26.83L82.40 26.83Q85.04 24.11 86.64 19.95L86.64 19.95Q86.88 18.91 87.56 14.95Q88.24 10.99 88.72 8.43L88.72 8.43Q88.48 5.39 87.04 3.15Q85.60 0.91 83.44 0.91L83.44 0.91Q79.52 0.91 77.12 7.91Q74.72 14.91 74.72 22.51L74.72 22.51" style="fill: rgb(230, 60, 117);" transform="translate(-197.800,-15.015)"></path></g><g class="path" style="opacity: 1; transform-origin: -75.8px 20.57px; transform: matrix3d(1, 0, 0, 0, 0, 1, 0, 0, 0, 0, 1, 0, 0, 0, 0, 1); animation: 0.961538s linear -0.403846s infinite normal forwards running animate-nltrwwb991; transform-box: view-box;"><path d="M109.36 0.51L109.36 0.51Q107.44 0.51 105.36 2.75L105.36 2.75L104.16 1.79Q104.72 0.67 106.64-0.21Q108.56-1.09 110.88-1.09L110.88-1.09Q118.16-1.09 118.16 5.47L118.16 5.47Q118.16 8.27 116.64 14.63Q115.12 20.99 115.12 23.23L115.12 23.23Q115.12 27.07 118.32 27.07L118.32 27.07Q120.96 27.07 123.48 23.47Q126 19.87 127.60 13.79L127.60 13.79L130.24-0.37Q136.16-0.37 138.88-0.85L138.88-0.85L139.92-1.09L134.88 27.23Q133.44 35.47 128.20 40.11Q122.96 44.75 114.64 44.75L114.64 44.75Q109.60 44.75 106.84 43.03Q104.08 41.31 104.08 38.55Q104.08 35.79 105.76 34.15Q107.44 32.51 110.52 32.51Q113.60 32.51 116.24 33.51Q118.88 34.51 120.08 34.67L120.08 34.67L119.92 36.11Q118.56 35.95 116 34.99Q113.44 34.03 110.92 34.03Q108.40 34.03 107.08 35.15Q105.76 36.27 105.76 38.39Q105.76 40.51 108.08 41.83Q110.40 43.15 113.84 43.15L113.84 43.15Q122.16 43.15 124.08 33.15L124.08 33.15L126.08 22.11Q122.72 29.47 115.92 29.47L115.92 29.47Q111.28 29.47 108.76 26.83Q106.24 24.19 106.24 19.39L106.24 19.39Q106.24 16.91 107.72 10.47Q109.20 4.03 109.36 0.51" style="fill: rgb(230, 60, 117);" transform="translate(-197.800,-15.015)"></path></g><g class="path" style="opacity: 1; transform-origin: -36.56px 9.37px; transform: matrix3d(1, 0, 0, 0, 0, 1, 0, 0, 0, 0, 1, 0, 0, 0, 0, 1); animation: 0.961538s linear -0.346154s infinite normal forwards running animate-nltrwwb991; transform-box: view-box;"><path d="M174 29.15L174 29.15Q175.92 29.15 178 26.91L178 26.91L179.20 27.87Q178.64 28.99 176.72 29.87Q174.80 30.75 172.48 30.75L172.48 30.75Q165.20 30.75 165.20 24.19L165.20 24.19Q165.20 21.39 166.64 14.19Q168.08 6.99 168.08 4.75L168.08 4.75Q168.08 1.31 164.80 1.31L164.80 1.31Q162.16 1.31 159.72 4.75Q157.28 8.19 155.68 14.19L155.68 14.19L152.96 29.15Q155.44 28.91 157.04 26.91L157.04 26.91L158.24 27.87Q155.84 30.75 152.24 30.75Q148.64 30.75 146.60 28.91Q144.56 27.07 144.56 24.11L144.56 24.11Q144.56 22.99 145.84 15.31L145.84 15.31L148.48 0.51Q146.08 0.75 144.48 2.75L144.48 2.75L143.28 1.79Q145.68-1.09 149.32-1.09Q152.96-1.09 154.96 0.75Q156.96 2.59 156.96 5.95L156.96 5.95L156.96 6.43Q160.24-1.09 167.20-1.09L167.20-1.09Q171.92-1.09 174.56 1.59Q177.20 4.27 177.20 8.99L177.20 8.99Q177.20 11.47 175.68 18.55Q174.16 25.63 174 29.15" style="fill: rgb(230, 60, 117);" transform="translate(-197.800,-15.015)"></path></g><g class="path" style="opacity: 1; transform-origin: 2.44px 9.37px; transform: matrix3d(1, 0, 0, 0, 0, 1, 0, 0, 0, 0, 1, 0, 0, 0, 0, 1); animation: 0.961538s linear -0.288462s infinite normal forwards running animate-nltrwwb991; transform-box: view-box;"><path d="M211.20 30.75L211.20 30.75Q204.16 30.75 203.52 24.59L203.52 24.59Q200 30.75 194.64 30.75Q189.28 30.75 186.12 27.51Q182.96 24.27 182.96 18.43L182.96 18.43Q182.96 9.31 187.44 4.11Q191.92-1.09 199.04-1.09L199.04-1.09Q204.88-1.09 206.80 4.43L206.80 4.43Q207.20 2.03 207.68-0.37L207.68-0.37Q213.60-0.37 216.48-0.85L216.48-0.85L217.52-1.09L212 29.15Q214.40 28.91 216 26.91L216 26.91L217.20 27.87Q214.80 30.75 211.20 30.75 zM192 22.51Q192 26.11 192.92 27.51Q193.84 28.91 195.76 28.91Q197.68 28.91 199.68 26.83L199.68 26.83Q202.32 24.11 203.92 19.95L203.92 19.95Q204.16 18.91 204.84 14.95Q205.52 10.99 206 8.43L206 8.43Q205.76 5.39 204.32 3.15Q202.88 0.91 200.72 0.91L200.72 0.91Q196.80 0.91 194.40 7.91Q192 14.91 192 22.51L192 22.51" style="fill: rgb(230, 60, 117);" transform="translate(-197.800,-15.015)"></path></g><g class="path" style="opacity: 1; transform-origin: 42.8px 17.85px; transform: matrix3d(1, 0, 0, 0, 0, 1, 0, 0, 0, 0, 1, 0, 0, 0, 0, 1); animation: 0.961538s linear -0.230769s infinite normal forwards running animate-nltrwwb991; transform-box: view-box;"><path d="M256 31.71L255.84 33.15L225.20 33.15L225.36 31.71L256 31.71" style="fill: rgb(230, 60, 117);" transform="translate(-197.800,-15.015)"></path></g><g class="path" style="opacity: 1; transform-origin: 90.32px 5.22px; transform: matrix3d(1, 0, 0, 0, 0, 1, 0, 0, 0, 0, 1, 0, 0, 0, 0, 1); animation: 0.961538s linear -0.173077s infinite normal forwards running animate-nltrwwb991; transform-box: view-box;"><path d="M297.76 30.75L297.76 30.75Q290.72 30.75 290.08 24.75L290.08 24.75Q286.56 30.75 281.12 30.75Q275.68 30.75 272.80 27.67Q269.92 24.59 269.92 19.23L269.92 19.23Q269.92 9.79 274.40 4.35Q278.88-1.09 286-1.09L286-1.09Q290.08-1.09 292.32 1.39L292.32 1.39Q293.28 2.67 293.52 3.31L293.52 3.31L297.84-20.21Q295.44-19.97 293.84-17.97L293.84-17.97L292.64-18.93Q295.04-21.81 298.68-21.81Q302.32-21.81 304.32-19.97Q306.32-18.13 306.32-14.77L306.32-14.77Q306.32-14.13 306.16-12.69L306.16-12.69Q302.24 9.31 298.56 29.15L298.56 29.15Q300.96 28.91 302.56 26.91L302.56 26.91L303.76 27.87Q301.36 30.75 297.76 30.75 zM278.96 22.51Q278.96 26.19 279.72 27.55Q280.48 28.91 282.12 28.91Q283.76 28.91 285.28 27.79Q286.80 26.67 287.84 24.91L287.84 24.91Q289.76 21.95 290.56 19.87L290.56 19.87L292.88 7.23Q292.72 4.67 291.20 2.55Q289.68 0.43 286 0.43L286 0.43Q283.44 0.43 281.20 7.95Q278.96 15.47 278.96 22.51L278.96 22.51" style="fill: rgb(230, 60, 117);" transform="translate(-197.800,-15.015)"></path></g><g class="path" style="opacity: 1; transform-origin: 124.44px 9.37px; transform: matrix3d(1, 0, 0, 0, 0, 1, 0, 0, 0, 0, 1, 0, 0, 0, 0, 1); animation: 0.961538s linear -0.115385s infinite normal forwards running animate-nltrwwb991; transform-box: view-box;"><path d="M325.76-1.09L325.76-1.09Q335.92-1.09 335.92 6.99L335.92 6.99Q335.92 12.03 331.16 14.63Q326.40 17.23 317.60 17.31L317.60 17.31Q317.44 20.19 317.44 21.87L317.44 21.87Q317.44 25.47 319.08 27.19Q320.72 28.91 323.20 28.91Q325.68 28.91 327.72 27.95Q329.76 26.99 330.96 25.67Q332.16 24.35 333.04 22.91L333.04 22.91Q334.64 20.27 334.64 19.55L334.64 19.55L336.08 20.19Q335.84 21.47 334.64 23.59Q333.44 25.71 332 27.07Q330.56 28.43 327.76 29.59Q324.96 30.75 321.52 30.75L321.52 30.75Q315.04 30.75 311.72 27.67Q308.40 24.59 308.40 19.23L308.40 19.23Q308.40 9.71 313.12 4.31Q317.84-1.09 325.76-1.09 zM333.92 6.99Q333.92 4.35 332.36 2.63Q330.80 0.91 327.72 0.91Q324.64 0.91 321.72 4.59Q318.80 8.27 317.84 15.47L317.84 15.47Q333.92 15.39 333.92 6.99L333.92 6.99" style="fill: rgb(230, 60, 117);" transform="translate(-197.800,-15.015)"></path></g><g class="path" style="opacity: 1; transform-origin: 158px 9.37px; transform: matrix3d(1, 0, 0, 0, 0, 1, 0, 0, 0, 0, 1, 0, 0, 0, 0, 1); animation: 0.961538s linear -0.0576923s infinite normal forwards running animate-nltrwwb991; transform-box: view-box;"><path d="M361.20 8.83Q359.52 7.15 359.52 4.75Q359.52 2.35 361.20 0.63Q362.88-1.09 365-1.09Q367.12-1.09 368.60-0.01Q370.08 1.07 370.72 2.75L370.72 2.75Q370.80 2.83 370.80 2.91L370.80 2.91L370.80 2.99Q371.76 5.07 371.76 9.03Q371.76 12.99 370.84 16.27Q369.92 19.55 368.04 22.95Q366.16 26.35 362.56 28.55Q358.96 30.75 354.08 30.75Q349.20 30.75 345.96 27.55Q342.72 24.35 342.72 20.19Q342.72 16.03 344.20 9.91Q345.68 3.79 345.84 0.51L345.84 0.51Q344.56 0.59 343.36 1.43Q342.16 2.27 341.60 3.07L341.60 3.07L341.04 3.87L339.84 2.91Q340.08 2.43 340.56 1.79Q341.04 1.15 343 0.03Q344.96-1.09 347.92-1.09Q350.88-1.09 352.68 0.83Q354.48 2.75 354.48 5.71Q354.48 8.67 352.88 14.87Q351.28 21.07 351.28 23.59Q351.28 26.11 352.44 27.55Q353.60 28.99 355.76 28.99L355.76 28.99Q361.12 28.99 365.52 23.15Q369.92 17.31 369.92 10.11L369.92 10.11Q369.92 9.55 369.76 8.43L369.76 8.43Q368.08 10.51 365.48 10.51Q362.88 10.51 361.20 8.83" style="fill: rgb(230, 60, 117);" transform="translate(-197.800,-15.015)"></path></g><g class="path" style="opacity: 1; transform-origin: 189.16px 8.63px; transform: matrix3d(1, 0, 0, 0, 0, 1, 0, 0, 0, 0, 1, 0, 0, 0, 0, 1); animation: 0.961538s linear 0s infinite normal forwards running animate-nltrwwb991; transform-box: view-box;"><path d="M383.04 28.67L383.04 28.67Q390.96 28.67 390.96 16.99L390.96 16.99Q390.96 14.11 390.12 10.19Q389.28 6.27 389.12 5.31L389.12 5.31Q384.24 10.35 378.16 11.39L378.16 11.39L378.16 9.47Q383.92 8.19 388.96 2.91L388.96 2.91L388.96 2.59Q388.96 0.67 389.52-1.17Q390.08-3.01 390.64-3.89L390.64-3.89L391.20-4.77L393.12-4.77Q393.12-1.25 394.24 1.67Q395.36 4.59 396.72 6.39Q398.08 8.19 399.20 11.11Q400.32 14.03 400.32 17.55L400.32 17.55Q400.32 23.23 396.04 26.99Q391.76 30.75 385.76 30.75Q379.76 30.75 376.68 28.03Q373.60 25.31 373.60 21.75Q373.60 18.19 375.36 16.63Q377.12 15.07 379.52 15.07Q381.92 15.07 383.48 16.63Q385.04 18.19 385.04 20.63Q385.04 23.07 383.52 24.75Q382 26.43 379.60 26.43L379.60 26.43Q378.56 26.43 377.44 26.11L377.44 26.11Q379.20 28.67 383.04 28.67" style="fill: rgb(230, 60, 117);" transform="translate(-197.800,-15.015)"></path></g></g><text dy="0.35em" fill="#e63c75" font-family="Sail" font-size="54">alayna_devs</text>
</g>
</g><style type="text/css">@keyframes animate-nltrwwb991 { 0.00% {transform: translate(0.00px,0.00px) rotate(0.00deg) scale(1.00, 1.00) skew(0deg, 0.00deg) ;opacity: 1.00;}2.00% {animation-timing-function: cubic-bezier(0.20,0.39,0.50,0.97);transform: translate(0.00px,-1.08px) rotate(0.00deg) ;}36.00% {animation-timing-function: cubic-bezier(0.50,0.03,0.80,0.61);transform: translate(0.00px,-10.00px) rotate(0.00deg) ;}72.00% {transform: translate(0.00px,0.00px) rotate(0.00deg) ;}74.00% {animation-timing-function: cubic-bezier(0.23,0.43,0.48,0.91);transform: translate(0.00px,0.00px) rotate(0.00deg) scale(1.00, 0.95) ;}86.00% {animation-timing-function: cubic-bezier(0.52,0.09,0.77,0.57);transform: translate(0.00px,0.00px) rotate(0.00deg) scale(1.00, 0.80) ;}100.00% {animation-timing-function: cubic-bezier(0.52,0.09,0.77,0.57);transform: translate(0.00px,0.00px) rotate(0.00deg) scale(1.00, 1.00) ;} }</style><!-- [ldio] generated by https://loading.io --></svg>