<svg xmlns="http://www.w3.org/2000/svg" xmlns:xlink="http://www.w3.org/1999/xlink" viewBox="0 0 280 152" preserveAspectRatio="xMidYMid" style="display: block; shape-rendering: auto; background: transparent;" width="280" height="152"><style type="text/css">
  .ld-text text {
    text-anchor: middle;
    dominant-baseline: middle;
    font-size: 55px;
    opacity: 0;
    user-select: none;
    pointer-events: none;
  }
</style>
<g style="transform-origin:140px 76px;transform:scale(1)" class="ld-text">
<g transform="translate(140,76)">
  <g transform="scale(0.6875) translate(0,0)"><g class="path" style="opacity: 1; transform-origin: -112.16px 15.22px; transform: matrix3d(1, 0, 0, 0, 0, 1, 0, 0, 0, 0, 1, 0, 0, 0, 0, 1); animation: 0.961538s linear -0.571154s infinite normal forwards running animate-nltrwwb991; transform-box: view-box;"><path d="M37.44-0.92L48.80-2.92L47.68 31.88L48.64 52.68L37.44 52.68L38.40 33.24L38.24 29L16.72 29L16.64 31.88L17.60 52.68L6.40 52.68L7.36 33.24L6.40-0.92L17.76-2.92L16.96 20.52L38 20.52L37.44-0.92" style="fill: rgb(230, 60, 117);" transform="translate(-139.760,-26.340)"></path></g><g class="path" style="opacity: 1; transform-origin: -74.6px 18.2px; transform: matrix3d(1, 0, 0, 0, 0, 1, 0, 0, 0, 0, 1, 0, 0, 0, 0, 1); animation: 0.961538s linear -0.507692s infinite normal forwards running animate-nltrwwb991; transform-box: view-box;"><path d="M59.84 13.96L70.56 11.96L69.60 31.88L70.48 50.68L59.76 52.68L60.72 33.24L59.84 13.96" style="fill: rgb(230, 60, 117);" transform="translate(-139.760,-26.340)"></path></g><g class="path" style="opacity: 1; transform-origin: -74.24px -22.52px; transform: matrix3d(1, 0, 0, 0, 0, 1, 0, 0, 0, 0, 1, 0, 0, 0, 0, 1); animation: 0.961538s linear -0.444231s infinite normal forwards running animate-nltrwwb991; transform-box: view-box;"><path d="M59.28 0.24Q59.28-2.44 61.36-4.56Q63.44-6.68 66.16-6.68Q68.88-6.68 70.32-5.20Q71.76-3.72 71.76-0.76Q71.76 2.20 69.72 4.32Q67.68 6.44 65 6.44Q62.32 6.44 60.80 4.68Q59.28 2.92 59.28 0.24" style="fill: rgb(230, 60, 117);" transform="translate(-139.760,-26.340)"></path></g><g class="path" style="opacity: 1; transform-origin: -33.28px 15.3px; transform: matrix3d(1, 0, 0, 0, 0, 1, 0, 0, 0, 0, 1, 0, 0, 0, 0, 1); animation: 0.961538s linear -0.380769s infinite normal forwards running animate-nltrwwb991; transform-box: view-box;"><path d="M101.20 5.56L87.04 6.68L87.92-2.52L125.92-2.52L125.04 6.68L111.12 5.48L110.80 31.88L111.76 52.68L100.56 52.68L101.52 33.24L101.20 5.56" style="fill: rgb(230, 60, 117);" transform="translate(-139.760,-26.340)"></path></g><g class="path" style="opacity: 1; transform-origin: 7.4px 14.28px; transform: matrix3d(1, 0, 0, 0, 0, 1, 0, 0, 0, 0, 1, 0, 0, 0, 0, 1); animation: 0.961538s linear -0.317308s infinite normal forwards running animate-nltrwwb991; transform-box: view-box;"><path d="M153.92 32.44Q153.92 26.92 152.96 25.08Q152 23.24 148.48 23.24Q144.96 23.24 140.48 26.04L140.48 26.04L140.48 31.88L141.36 50.68L130.56 52.68L131.52 33.24L130.56-7.24L141.52-9.24L140.48 11.48L140.48 20.84Q141.68 19.24 143.20 17.72Q144.72 16.20 147.92 14.28Q151.12 12.36 154.76 12.36Q158.40 12.36 160.88 15.20Q163.36 18.04 163.36 22.92L163.36 22.92L162.88 31.88L163.76 51.08L152.96 53.08L153.92 32.44" style="fill: rgb(230, 60, 117);" transform="translate(-139.760,-26.340)"></path></g><g class="path" style="opacity: 1; transform-origin: 45.88px 18.8px; transform: matrix3d(1, 0, 0, 0, 0, 1, 0, 0, 0, 0, 1, 0, 0, 0, 0, 1); animation: 0.961538s linear -0.253846s infinite normal forwards running animate-nltrwwb991; transform-box: view-box;"><path d="M186.96 44.52L186.96 44.52Q189.28 44.52 191.84 43.32Q194.40 42.12 195.84 40.92L195.84 40.92L197.28 39.72L200.96 44.20Q200.16 45.56 198.48 47.32Q196.80 49.08 195.08 50.32Q193.36 51.56 190.52 52.56Q187.68 53.56 184.64 53.56L184.64 53.56Q178.16 53.56 174.08 48.64Q170 43.72 170 35.96L170 35.96Q170 26.20 175.68 18.84Q181.36 11.48 188.96 11.48L188.96 11.48Q194.80 11.48 198.04 14.76Q201.28 18.04 201.28 23.96L201.28 23.96Q201.28 27.48 200.08 31.96L200.08 31.96L198.48 33.64L178.48 35.48Q179.84 44.52 186.96 44.52 zM186.96 19.72L186.96 19.72Q183.44 19.72 181.04 22.56Q178.64 25.40 178.24 29.80L178.24 29.80L191.84 28.12Q192.08 26.28 192.08 25.08L192.08 25.08Q192.08 19.72 186.96 19.72" style="fill: rgb(230, 60, 117);" transform="translate(-139.760,-26.340)"></path></g><g class="path" style="opacity: 1; transform-origin: 79.76px 18.2px; transform: matrix3d(1, 0, 0, 0, 0, 1, 0, 0, 0, 0, 1, 0, 0, 0, 0, 1); animation: 0.961538s linear -0.190385s infinite normal forwards running animate-nltrwwb991; transform-box: view-box;"><path d="M207.36 14.04L207.36 14.04L217.04 11.96Q217.76 18.12 218 23.64L218 23.64Q225.28 12.36 231.68 12.36L231.68 12.36L230.80 24.84Q226.16 24.84 223.48 25.68Q220.80 26.52 218 29L218 29L218 31.88L218.88 50.68L208.16 52.68L209.12 33.24Q208.80 22.52 207.36 14.04" style="fill: rgb(230, 60, 117);" transform="translate(-139.760,-26.340)"></path></g><g class="path" style="opacity: 1; transform-origin: 110.04px 18.8px; transform: matrix3d(1, 0, 0, 0, 0, 1, 0, 0, 0, 0, 1, 0, 0, 0, 0, 1); animation: 0.961538s linear -0.126923s infinite normal forwards running animate-nltrwwb991; transform-box: view-box;"><path d="M251.12 44.52L251.12 44.52Q253.44 44.52 256 43.32Q258.56 42.12 260 40.92L260 40.92L261.44 39.72L265.12 44.20Q264.32 45.56 262.64 47.32Q260.96 49.08 259.24 50.32Q257.52 51.56 254.68 52.56Q251.84 53.56 248.80 53.56L248.80 53.56Q242.32 53.56 238.24 48.64Q234.16 43.72 234.16 35.96L234.16 35.96Q234.16 26.20 239.84 18.84Q245.52 11.48 253.12 11.48L253.12 11.48Q258.96 11.48 262.20 14.76Q265.44 18.04 265.44 23.96L265.44 23.96Q265.44 27.48 264.24 31.96L264.24 31.96L262.64 33.64L242.64 35.48Q244 44.52 251.12 44.52 zM251.12 19.72L251.12 19.72Q247.60 19.72 245.20 22.56Q242.80 25.40 242.40 29.80L242.40 29.80L256 28.12Q256.24 26.28 256.24 25.08L256.24 25.08Q256.24 19.72 251.12 19.72" style="fill: rgb(230, 60, 117);" transform="translate(-139.760,-26.340)"></path></g><g class="path" style="opacity: 1; transform-origin: 137px 24.36px; transform: matrix3d(1, 0, 0, 0, 0, 1, 0, 0, 0, 0, 1, 0, 0, 0, 0, 1); animation: 0.961538s linear -0.0634615s infinite normal forwards running animate-nltrwwb991; transform-box: view-box;"><path d="M270.96 47.44Q270.96 44.76 272.88 42.80Q274.80 40.84 277.36 40.84Q279.92 40.84 281.24 42.24Q282.56 43.64 282.56 46.36Q282.56 49.08 280.72 51.12Q278.88 53.16 276.36 53.16Q273.84 53.16 272.40 51.64Q270.96 50.12 270.96 47.44" style="fill: rgb(230, 60, 117);" transform="translate(-139.760,-26.340)"></path></g><g class="path" style="opacity: 1; transform-origin: 140.12px -0.41px; transform: matrix3d(1, 0, 0, 0, 0, 1, 0, 0, 0, 0, 1, 0, 0, 0, 0, 1); animation: 0.961538s linear 0s infinite normal forwards running animate-nltrwwb991; transform-box: view-box;"><path d="M273.84-1.32L285.92-3.32L281.44 32.12L273.84 33.24L273.84-1.32" style="fill: rgb(230, 60, 117);" transform="translate(-139.760,-26.340)"></path></g></g><text dy="0.35em" fill="#e63c75" font-family="Acme" font-size="55">Hi There!</text>
</g>
</g><style type="text/css">@keyframes animate-nltrwwb991 { 0.00% {transform: translate(0.00px,0.00px) rotate(0.00deg) scale(1.00, 1.00) skew(0deg, 0.00deg) ;opacity: 1.00;}2.00% {animation-timing-function: cubic-bezier(0.20,0.39,0.50,0.97);transform: translate(0.00px,-1.08px) rotate(0.00deg) ;}36.00% {animation-timing-function: cubic-bezier(0.50,0.03,0.80,0.61);transform: translate(0.00px,-10.00px) rotate(0.00deg) ;}72.00% {transform: translate(0.00px,0.00px) rotate(0.00deg) ;}74.00% {animation-timing-function: cubic-bezier(0.23,0.43,0.48,0.91);transform: translate(0.00px,0.00px) rotate(0.00deg) scale(1.00, 0.95) ;}86.00% {animation-timing-function: cubic-bezier(0.52,0.09,0.77,0.57);transform: translate(0.00px,0.00px) rotate(0.00deg) scale(1.00, 0.80) ;}100.00% {animation-timing-function: cubic-bezier(0.52,0.09,0.77,0.57);transform: translate(0.00px,0.00px) rotate(0.00deg) scale(1.00, 1.00) ;} }</style><!-- [ldio] generated by https://loading.io --></svg>