<svg xmlns="http://www.w3.org/2000/svg" xmlns:xlink="http://www.w3.org/1999/xlink" viewBox="0 0 280 51" preserveAspectRatio="xMidYMid" style="display: block; shape-rendering: auto; background: transparent;" width="280" height="51"><style type="text/css">
  .ld-text text {
    text-anchor: middle;
    dominant-baseline: middle;
    font-size: 37px;
    opacity: 0;
    user-select: none;
    pointer-events: none;
  }
</style>
<g style="transform-origin:140px 25.5px;transform:scale(1)" class="ld-text">
<g transform="translate(140,25.5)">
  <g transform="scale(0.4625) translate(0,0)"><g class="path" style="opacity: 1; transform-origin: -260.8px 20.69px; transform: matrix3d(1, 0, 0, 0, 0, 1, 0, 0, 0, 0, 1, 0, 0, 0, 0, 1); animation: 0.961538s linear -0.597285s infinite normal forwards running animate-nltrwwb991; transform-box: view-box;"><path d="M24.72 51.33L24.72 51.33Q33.12 51.33 37.80 47.89Q42.48 44.45 42.48 38.77L42.48 38.77Q42.48 34.69 40.44 31.57Q38.40 28.45 35.36 26.41Q32.32 24.37 29.16 22.37Q26 20.37 23.28 17.33Q20.56 14.29 19.68 10.45L19.68 10.45Q12.40 8.29 10.08 1.41L10.08 1.41Q9.20-1.23 9.20-4.11Q9.20-6.99 10.08-10.11L10.08-10.11Q11.92-16.27 16.08-19.39L16.08-19.39L16.96-18.11Q13.20-15.39 11.52-9.63L11.52-9.63Q10.72-6.75 10.72-4.11Q10.72-1.47 11.52 0.93L11.52 0.93Q13.44 6.77 19.44 8.77L19.44 8.77Q19.28 7.89 19.28 6.05L19.28 6.05Q19.28-4.43 26.88-10.91Q34.48-17.39 45.44-17.39L45.44-17.39Q52.64-17.39 56.96-13.47L56.96-13.47Q60.64-10.03 60.64-5.03Q60.64-0.03 57.28 3.61Q53.92 7.25 48.24 7.25L48.24 7.25Q45.12 7.25 43.12 6.05L43.12 6.05Q39.04 9.17 33.44 10.53L33.44 10.53Q35.04 12.05 40.92 16.13Q46.80 20.21 49.72 23.93Q52.64 27.65 52.64 32.61L52.64 32.61Q52.64 41.73 45.56 47.41Q38.48 53.09 27.64 53.09Q16.80 53.09 11.28 48.29L11.28 48.29Q6.48 44.21 6.48 38.33Q6.48 32.45 10.28 28.25Q14.08 24.05 19.76 24.05Q25.44 24.05 28.16 26.57Q30.88 29.09 30.88 32.69Q30.88 36.29 28.68 39.09Q26.48 41.89 22.96 41.89Q19.44 41.89 17.36 39.65L17.36 39.65Q15.44 37.73 15.20 34.85L15.20 34.85Q15.12 34.05 15.20 33.89L15.20 33.89L16.72 33.97Q16.64 36.77 18.48 38.61L18.48 38.61Q20 40.29 22.92 40.29Q25.84 40.29 27.60 38.01Q29.36 35.73 29.36 32.73Q29.36 29.73 27.28 27.89L27.28 27.89Q24.96 25.57 19.84 25.57Q14.72 25.57 11.36 29.29Q8 33.01 8 38.25Q8 43.49 12.32 47.17L12.32 47.17Q14.88 49.41 17.56 50.37Q20.24 51.33 24.72 51.33 zM38.32-3.71L38.32-3.71Q38.32-7.23 40.12-9.55Q41.92-11.87 45.04-11.87L45.04-11.87Q50.40-11.87 50.40-5.99Q50.40-0.11 44.56 5.09L44.56 5.09Q46.32 5.89 48.24 5.89L48.24 5.89Q53.20 5.89 56.16 2.65Q59.12-0.59 59.12-4.95Q59.12-9.31 55.92-12.35L55.92-12.35Q52-15.87 45.60-15.87Q39.20-15.87 34.72-12.75L34.72-12.75Q27.76-7.79 27.76 0.05L27.76 0.05Q27.76 6.53 32.08 9.49L32.08 9.49Q37.44 8.29 42 5.17L42 5.17Q38.32 1.89 38.32-3.71 zM44.96-10.43L44.96-10.43Q42.56-10.43 41.24-8.59Q39.92-6.75 39.92-3.71L39.92-3.71Q39.92 1.49 43.20 4.21L43.20 4.21Q45.60 2.53 47.20-0.35Q48.80-3.23 48.80-6.03L48.80-6.03Q48.80-10.43 44.96-10.43" style="fill: rgb(230, 60, 117);" transform="translate(-294.360,-17.906)"></path></g><g class="path" style="opacity: 1; transform-origin: -217.16px 12.26px; transform: matrix3d(1, 0, 0, 0, 0, 1, 0, 0, 0, 0, 1, 0, 0, 0, 0, 1); animation: 0.961538s linear -0.559955s infinite normal forwards running animate-nltrwwb991; transform-box: view-box;"><path d="M74.08 36.53Q67.92 36.53 64.72 33.45Q61.52 30.37 61.52 25.69Q61.52 21.01 62.36 17.69Q63.20 14.37 65.12 11.29Q67.04 8.21 70.92 6.45Q74.80 4.69 80.60 4.69Q86.40 4.69 89.64 7.77Q92.88 10.85 92.88 16.21L92.88 16.21Q92.88 25.33 88.04 30.93Q83.20 36.53 74.08 36.53L74.08 36.53 zM70.56 28.29L70.56 28.29Q70.56 34.69 74.28 34.69Q78 34.69 80.92 28.25Q83.84 21.81 83.84 12.93L83.84 12.93Q83.84 6.21 80.20 6.21Q76.56 6.21 73.56 12.33Q70.56 18.45 70.56 28.29" style="fill: rgb(230, 60, 117);" transform="translate(-294.360,-17.906)"></path></g><g class="path" style="opacity: 1; transform-origin: -185.48px 12.02px; transform: matrix3d(1, 0, 0, 0, 0, 1, 0, 0, 0, 0, 1, 0, 0, 0, 0, 1); animation: 0.961538s linear -0.522624s infinite normal forwards running animate-nltrwwb991; transform-box: view-box;"><path d="M115.28-16.03L115.28-16.03Q118.16-16.03 120.04-13.87Q121.92-11.71 121.92-7.39Q121.92-3.07 118.48 5.41L118.48 5.41L121.52 5.41L121.36 6.85L117.84 6.85Q115.12 13.65 115.12 17.17L115.12 17.17L113.68 17.17Q113.68 13.01 116.32 6.85L116.32 6.85L111.68 6.85Q109.28 19.41 105.52 41.41L105.52 41.41L95.84 41.41L102 6.85L97.12 6.85L97.28 5.41L102.24 5.41L103.52-1.47Q104.80-9.39 107.48-12.71Q110.16-16.03 115.28-16.03 zM120.40-7.55L120.40-7.55Q120.40-10.43 119.08-12.51Q117.76-14.59 115.84-14.59L115.84-14.59Q115.04-11.47 111.92 5.41L111.92 5.41L116.88 5.41Q120.40-2.59 120.40-7.55" style="fill: rgb(230, 60, 117);" transform="translate(-294.360,-17.906)"></path></g><g class="path" style="opacity: 1; transform-origin: -161px 9.89px; transform: matrix3d(1, 0, 0, 0, 0, 1, 0, 0, 0, 0, 1, 0, 0, 0, 0, 1); animation: 0.961538s linear -0.485294s infinite normal forwards running animate-nltrwwb991; transform-box: view-box;"><path d="M121.68 5.41L125.76 5.41L127.92-6.43Q133.84-6.43 136.72-6.91L136.72-6.91L137.76-7.15Q136.64-1.55 135.28 5.41L135.28 5.41L145.20 5.41L145.04 6.85L135.04 6.85Q131.04 27.49 131.04 31.73L131.04 31.73Q131.04 34.29 133.76 34.29Q136.48 34.29 138.72 30.85Q140.96 27.41 141.92 23.41L141.92 23.41L143.36 23.89Q140.40 36.53 131.12 36.53L131.12 36.53Q127.28 36.53 124.72 34.41Q122.16 32.29 122.16 28.49Q122.16 24.69 125.44 6.85L125.44 6.85L121.52 6.85L121.68 5.41" style="fill: rgb(230, 60, 117);" transform="translate(-294.360,-17.906)"></path></g><g class="path" style="opacity: 1; transform-origin: -122.36px 12.26px; transform: matrix3d(1, 0, 0, 0, 0, 1, 0, 0, 0, 0, 1, 0, 0, 0, 0, 1); animation: 0.961538s linear -0.447964s infinite normal forwards running animate-nltrwwb991; transform-box: view-box;"><path d="M187.28 14.61Q185.60 12.93 185.60 10.53Q185.60 8.13 187.28 6.41Q188.96 4.69 191.08 4.69Q193.20 4.69 194.68 5.77Q196.16 6.85 196.80 8.53L196.80 8.53Q196.88 8.61 196.88 8.69L196.88 8.69L196.88 8.77Q197.84 10.85 197.84 14.49Q197.84 18.13 197.36 20.69Q196.88 23.25 195.60 26.13Q194.32 29.01 192.48 31.29Q190.64 33.57 187.56 35.05Q184.48 36.53 180.72 36.53L180.72 36.53Q174.32 36.53 171.12 31.89L171.12 31.89Q167.28 36.53 160.64 36.53L160.64 36.53Q155.52 36.53 152.28 33.33Q149.04 30.13 149.04 25.97Q149.04 21.81 150.52 15.69Q152 9.57 152.16 6.29L152.16 6.29Q150.88 6.37 149.68 7.21Q148.48 8.05 147.92 8.85L147.92 8.85L147.36 9.65L146.16 8.69Q146.40 8.21 146.88 7.57Q147.36 6.93 149.32 5.81Q151.28 4.69 154.24 4.69Q157.20 4.69 159 6.61Q160.80 8.53 160.80 11.49Q160.80 14.45 159.20 20.65Q157.60 26.85 157.60 29.37Q157.60 31.89 158.76 33.33Q159.92 34.77 162.08 34.77L162.08 34.77Q166.72 34.77 170 29.97L170 29.97Q169.12 27.73 169.12 24.77Q169.12 21.81 170.60 15.69Q172.08 9.57 172.24 6.29L172.24 6.29Q170.96 6.37 169.76 7.21Q168.56 8.05 168 8.85L168 8.85L167.44 9.65L166.24 8.69Q166.48 8.21 166.96 7.57Q167.44 6.93 169.40 5.81Q171.36 4.69 174.32 4.69Q177.28 4.69 179.08 6.61Q180.88 8.53 180.88 11.49Q180.88 14.45 179.28 20.65Q177.68 26.85 177.68 29.37Q177.68 31.89 178.84 33.33Q180 34.77 182.16 34.77L182.16 34.77Q187.52 34.77 191.76 28.97Q196 23.17 196 15.89L196 15.89Q196 15.33 195.84 14.21L195.84 14.21Q194.16 16.29 191.56 16.29Q188.96 16.29 187.28 14.61" style="fill: rgb(230, 60, 117);" transform="translate(-294.360,-17.906)"></path></g><g class="path" style="opacity: 1; transform-origin: -75.4px 12.26px; transform: matrix3d(1, 0, 0, 0, 0, 1, 0, 0, 0, 0, 1, 0, 0, 0, 0, 1); animation: 0.961538s linear -0.410633s infinite normal forwards running animate-nltrwwb991; transform-box: view-box;"><path d="M229.92 36.53L229.92 36.53Q222.88 36.53 222.24 30.37L222.24 30.37Q218.72 36.53 213.36 36.53Q208 36.53 204.84 33.29Q201.68 30.05 201.68 24.21L201.68 24.21Q201.68 15.09 206.16 9.89Q210.64 4.69 217.76 4.69L217.76 4.69Q223.60 4.69 225.52 10.21L225.52 10.21Q225.92 7.81 226.40 5.41L226.40 5.41Q232.32 5.41 235.20 4.93L235.20 4.93L236.24 4.69L230.72 34.93Q233.12 34.69 234.72 32.69L234.72 32.69L235.92 33.65Q233.52 36.53 229.92 36.53 zM210.72 28.29Q210.72 31.89 211.64 33.29Q212.56 34.69 214.48 34.69Q216.40 34.69 218.40 32.61L218.40 32.61Q221.04 29.89 222.64 25.73L222.64 25.73Q222.88 24.69 223.56 20.73Q224.24 16.77 224.72 14.21L224.72 14.21Q224.48 11.17 223.04 8.93Q221.60 6.69 219.44 6.69L219.44 6.69Q215.52 6.69 213.12 13.69Q210.72 20.69 210.72 28.29L210.72 28.29" style="fill: rgb(230, 60, 117);" transform="translate(-294.360,-17.906)"></path></g><g class="path" style="opacity: 1; transform-origin: -38.92px 11.68px; transform: matrix3d(1, 0, 0, 0, 0, 1, 0, 0, 0, 0, 1, 0, 0, 0, 0, 1); animation: 0.961538s linear -0.373303s infinite normal forwards running animate-nltrwwb991; transform-box: view-box;"><path d="M242.08 8.53L240.88 7.57Q243.28 4.69 246.92 4.69Q250.56 4.69 252.56 6.53Q254.56 8.37 254.56 11.73L254.56 11.73L254.56 12.21Q258.16 4.69 263.92 4.69L263.92 4.69Q270.08 4.69 270.08 11.09L270.08 11.09Q270.08 13.73 268.32 16.69Q266.56 19.65 264.80 22.33Q263.04 25.01 263.04 27.09L263.04 27.09L261.12 27.09Q261.12 24.13 264.56 19.09Q268 14.05 268 11.29Q268 8.53 266.92 7.53Q265.84 6.53 263.72 6.53Q261.60 6.53 259.56 8.37Q257.52 10.21 256.16 13.01L256.16 13.01Q254 17.17 253.28 19.81L253.28 19.81L253.28 19.89L250.40 35.81L240.80 35.81L246.08 6.29Q243.68 6.53 242.08 8.53L242.08 8.53" style="fill: rgb(230, 60, 117);" transform="translate(-294.360,-17.906)"></path></g><g class="path" style="opacity: 1; transform-origin: -8.84px 12.26px; transform: matrix3d(1, 0, 0, 0, 0, 1, 0, 0, 0, 0, 1, 0, 0, 0, 0, 1); animation: 0.961538s linear -0.335973s infinite normal forwards running animate-nltrwwb991; transform-box: view-box;"><path d="M289.04 4.69L289.04 4.69Q299.20 4.69 299.20 12.77L299.20 12.77Q299.20 17.81 294.44 20.41Q289.68 23.01 280.88 23.09L280.88 23.09Q280.72 25.97 280.72 27.65L280.72 27.65Q280.72 31.25 282.36 32.97Q284 34.69 286.48 34.69Q288.96 34.69 291 33.73Q293.04 32.77 294.24 31.45Q295.44 30.13 296.32 28.69L296.32 28.69Q297.92 26.05 297.92 25.33L297.92 25.33L299.36 25.97Q299.12 27.25 297.92 29.37Q296.72 31.49 295.28 32.85Q293.84 34.21 291.04 35.37Q288.24 36.53 284.80 36.53L284.80 36.53Q278.32 36.53 275 33.45Q271.68 30.37 271.68 25.01L271.68 25.01Q271.68 15.49 276.40 10.09Q281.12 4.69 289.04 4.69 zM297.20 12.77Q297.20 10.13 295.64 8.41Q294.08 6.69 291 6.69Q287.92 6.69 285 10.37Q282.08 14.05 281.12 21.25L281.12 21.25Q297.20 21.17 297.20 12.77L297.20 12.77" style="fill: rgb(230, 60, 117);" transform="translate(-294.360,-17.906)"></path></g><g class="path" style="opacity: 1; transform-origin: 47.6px 11.68px; transform: matrix3d(1, 0, 0, 0, 0, 1, 0, 0, 0, 0, 1, 0, 0, 0, 0, 1); animation: 0.961538s linear -0.298643s infinite normal forwards running animate-nltrwwb991; transform-box: view-box;"><path d="M337.68 11.33L337.68 11.33Q341.84 9.97 347.36 9.97Q352.88 9.97 352.88 13.17L352.88 13.17Q352.88 15.09 350.80 16.33Q348.72 17.57 344.80 17.57L344.80 17.57Q338.64 17.57 334.88 14.61L334.88 14.61Q333.44 16.13 332.64 17.17Q331.84 18.21 330.84 21.17Q329.84 24.13 329.84 28.29Q329.84 32.45 333.36 35.53Q336.88 38.61 340.68 38.61Q344.48 38.61 347.76 37.17Q351.04 35.73 352.96 33.81Q354.88 31.89 356.32 29.57L356.32 29.57Q358.32 26.61 358.96 24.37L358.96 24.37L360.56 24.77Q360.56 25.01 359.96 26.45Q359.36 27.89 357.76 30.25Q356.16 32.61 353.92 34.81Q351.68 37.01 347.76 38.61Q343.84 40.21 339.20 40.21L339.20 40.21Q330.64 40.21 325.84 36.57Q321.04 32.93 321.04 27.09Q321.04 21.25 324.68 17.81Q328.32 14.37 333.28 13.01L333.28 13.01Q329.68 8.61 329.68 2.57Q329.68-3.47 334.52-8.19Q339.36-12.91 348.48-12.91L348.48-12.91Q355.44-12.91 359.16-10.47Q362.88-8.03 362.88-4.39Q362.88-0.75 361 3.05Q359.12 6.85 358.88 9.09L358.88 9.09L357.20 9.09Q357.44 6.69 359.32 2.93Q361.20-0.83 361.20-4.07Q361.20-7.31 357.80-9.39Q354.40-11.47 349.16-11.47Q343.92-11.47 340.24-7.43Q336.56-3.39 336.56 4.93L336.56 4.93Q336.56 9.41 337.68 11.33 zM338.88 13.65Q339.28 14.21 340.92 15.17Q342.56 16.13 345.28 16.13Q348 16.13 349.64 15.29Q351.28 14.45 351.28 13.33L351.28 13.33Q351.28 11.41 346.96 11.41Q342.64 11.41 338.32 12.69L338.32 12.69Q338.48 13.09 338.88 13.65" style="fill: rgb(230, 60, 117);" transform="translate(-294.360,-17.906)"></path></g><g class="path" style="opacity: 1; transform-origin: 89.44px 12.26px; transform: matrix3d(1, 0, 0, 0, 0, 1, 0, 0, 0, 0, 1, 0, 0, 0, 0, 1); animation: 0.961538s linear -0.261312s infinite normal forwards running animate-nltrwwb991; transform-box: view-box;"><path d="M396.56 34.93L396.56 34.93Q398.48 34.93 400.56 32.69L400.56 32.69L401.76 33.65Q401.20 34.77 399.28 35.65Q397.36 36.53 395.04 36.53L395.04 36.53Q387.76 36.53 387.76 29.97L387.76 29.97Q387.76 27.17 389.20 19.97Q390.64 12.77 390.64 10.53L390.64 10.53Q390.64 7.09 387.36 7.09L387.36 7.09Q384.72 7.09 382.28 10.53Q379.84 13.97 378.24 19.97L378.24 19.97L375.52 34.93Q378 34.69 379.60 32.69L379.60 32.69L380.80 33.65Q378.40 36.53 374.80 36.53Q371.20 36.53 369.16 34.69Q367.12 32.85 367.12 29.89L367.12 29.89Q367.12 28.77 368.40 21.09L368.40 21.09L371.04 6.29Q368.64 6.53 367.04 8.53L367.04 8.53L365.84 7.57Q368.24 4.69 371.88 4.69Q375.52 4.69 377.52 6.53Q379.52 8.37 379.52 11.73L379.52 11.73L379.52 12.21Q382.80 4.69 389.76 4.69L389.76 4.69Q394.48 4.69 397.12 7.37Q399.76 10.05 399.76 14.77L399.76 14.77Q399.76 17.25 398.24 24.33Q396.72 31.41 396.56 34.93" style="fill: rgb(230, 60, 117);" transform="translate(-294.360,-17.906)"></path></g><g class="path" style="opacity: 1; transform-origin: 127.32px 23.46px; transform: matrix3d(1, 0, 0, 0, 0, 1, 0, 0, 0, 0, 1, 0, 0, 0, 0, 1); animation: 0.961538s linear -0.223982s infinite normal forwards running animate-nltrwwb991; transform-box: view-box;"><path d="M431.84 44.53L431.84 44.53Q434.72 44.53 436.80 42.29L436.80 42.29L437.92 43.25Q436 45.97 431.84 45.97L431.84 45.97Q430.08 45.97 428.24 45.57L428.24 45.57Q422.80 50.53 414.32 50.53L414.32 50.53Q409.28 50.53 406.52 48.81Q403.76 47.09 403.76 44.33Q403.76 41.57 405.48 39.93Q407.20 38.29 411.60 38.29Q416 38.29 423.20 41.89L423.20 41.89L425.68 28.61Q422.08 35.25 416.40 35.25L416.40 35.25Q405.52 35.25 405.52 24.53L405.52 24.53Q405.52 15.57 410.04 10.13Q414.56 4.69 421.60 4.69L421.60 4.69Q425.68 4.69 427.92 7.17L427.92 7.17Q428.56 7.89 429.20 9.33L429.20 9.33L429.92 5.41Q435.84 5.41 438.56 4.93L438.56 4.93L439.60 4.69L434.32 34.21Q433.12 40.45 429.52 44.29L429.52 44.29Q430.56 44.53 431.84 44.53 zM414.56 27.01Q414.56 30.69 415.28 31.93Q416 33.17 418 33.17Q420 33.17 422.08 31.01Q424.16 28.85 425.08 26.97Q426 25.09 426.64 23.33L426.64 23.33L428.32 14.13L428.32 13.57Q428.32 6.21 421.60 6.21L421.60 6.21Q419.04 6.21 416.80 13.17Q414.56 20.13 414.56 27.01L414.56 27.01 zM414 48.93L414 48.93Q420.40 48.93 422.64 43.41L422.64 43.41L421.52 42.85Q420.56 42.37 420.36 42.25Q420.16 42.13 419.28 41.73Q418.40 41.33 418 41.21Q417.60 41.09 416.76 40.77Q415.92 40.45 415.36 40.33Q414.80 40.21 414.08 40.05L414.08 40.05Q412.88 39.81 410.56 39.81Q408.24 39.81 406.84 40.93Q405.44 42.05 405.44 44.21Q405.44 46.37 407.76 47.65Q410.08 48.93 414 48.93" style="fill: rgb(230, 60, 117);" transform="translate(-294.360,-17.906)"></path></g><g class="path" style="opacity: 1; transform-origin: 156.48px 12.26px; transform: matrix3d(1, 0, 0, 0, 0, 1, 0, 0, 0, 0, 1, 0, 0, 0, 0, 1); animation: 0.961538s linear -0.186652s infinite normal forwards running animate-nltrwwb991; transform-box: view-box;"><path d="M457.52 33.65Q455.12 36.53 451.52 36.53Q447.92 36.53 445.88 34.69Q443.84 32.85 443.84 29.89L443.84 29.89Q443.84 28.85 445.12 21.17L445.12 21.17L447.76 6.85L444.40 6.85L444.56 5.41L448 5.41Q453.92 5.41 456.72 4.93L456.72 4.93L457.84 4.69L452.32 34.93Q454.72 34.69 456.32 32.69L456.32 32.69L457.52 33.65" style="fill: rgb(230, 60, 117);" transform="translate(-294.360,-17.906)"></path></g><g class="path" style="opacity: 1; transform-origin: 160.24px -21.54px; transform: matrix3d(1, 0, 0, 0, 0, 1, 0, 0, 0, 0, 1, 0, 0, 0, 0, 1); animation: 0.961538s linear -0.149321s infinite normal forwards running animate-nltrwwb991; transform-box: view-box;"><path d="M450.48-2.99Q448.80-4.67 448.80-7.07Q448.80-9.47 450.48-11.19Q452.16-12.91 454.56-12.91Q456.96-12.91 458.68-11.19Q460.40-9.47 460.40-7.07Q460.40-4.67 458.68-2.99Q456.96-1.31 454.56-1.31Q452.16-1.31 450.48-2.99" style="fill: rgb(230, 60, 117);" transform="translate(-294.360,-17.906)"></path></g><g class="path" style="opacity: 1; transform-origin: 185.92px 12.26px; transform: matrix3d(1, 0, 0, 0, 0, 1, 0, 0, 0, 0, 1, 0, 0, 0, 0, 1); animation: 0.961538s linear -0.111991s infinite normal forwards running animate-nltrwwb991; transform-box: view-box;"><path d="M493.04 34.93L493.04 34.93Q494.96 34.93 497.04 32.69L497.04 32.69L498.24 33.65Q497.68 34.77 495.76 35.65Q493.84 36.53 491.52 36.53L491.52 36.53Q484.24 36.53 484.24 29.97L484.24 29.97Q484.24 27.17 485.68 19.97Q487.12 12.77 487.12 10.53L487.12 10.53Q487.12 7.09 483.84 7.09L483.84 7.09Q481.20 7.09 478.76 10.53Q476.32 13.97 474.72 19.97L474.72 19.97L472 34.93Q474.48 34.69 476.08 32.69L476.08 32.69L477.28 33.65Q474.88 36.53 471.28 36.53Q467.68 36.53 465.64 34.69Q463.60 32.85 463.60 29.89L463.60 29.89Q463.60 28.77 464.88 21.09L464.88 21.09L467.52 6.29Q465.12 6.53 463.52 8.53L463.52 8.53L462.32 7.57Q464.72 4.69 468.36 4.69Q472 4.69 474 6.53Q476 8.37 476 11.73L476 11.73L476 12.21Q479.28 4.69 486.24 4.69L486.24 4.69Q490.96 4.69 493.60 7.37Q496.24 10.05 496.24 14.77L496.24 14.77Q496.24 17.25 494.72 24.33Q493.20 31.41 493.04 34.93" style="fill: rgb(230, 60, 117);" transform="translate(-294.360,-17.906)"></path></g><g class="path" style="opacity: 1; transform-origin: 221.4px 12.26px; transform: matrix3d(1, 0, 0, 0, 0, 1, 0, 0, 0, 0, 1, 0, 0, 0, 0, 1); animation: 0.961538s linear -0.0746606s infinite normal forwards running animate-nltrwwb991; transform-box: view-box;"><path d="M519.28 4.69L519.28 4.69Q529.44 4.69 529.44 12.77L529.44 12.77Q529.44 17.81 524.68 20.41Q519.92 23.01 511.12 23.09L511.12 23.09Q510.96 25.97 510.96 27.65L510.96 27.65Q510.96 31.25 512.60 32.97Q514.24 34.69 516.72 34.69Q519.20 34.69 521.24 33.73Q523.28 32.77 524.48 31.45Q525.68 30.13 526.56 28.69L526.56 28.69Q528.16 26.05 528.16 25.33L528.16 25.33L529.60 25.97Q529.36 27.25 528.16 29.37Q526.96 31.49 525.52 32.85Q524.08 34.21 521.28 35.37Q518.48 36.53 515.04 36.53L515.04 36.53Q508.56 36.53 505.24 33.45Q501.92 30.37 501.92 25.01L501.92 25.01Q501.92 15.49 506.64 10.09Q511.36 4.69 519.28 4.69 zM527.44 12.77Q527.44 10.13 525.88 8.41Q524.32 6.69 521.24 6.69Q518.16 6.69 515.24 10.37Q512.32 14.05 511.36 21.25L511.36 21.25Q527.44 21.17 527.44 12.77L527.44 12.77" style="fill: rgb(230, 60, 117);" transform="translate(-294.360,-17.906)"></path></g><g class="path" style="opacity: 1; transform-origin: 253.16px 12.26px; transform: matrix3d(1, 0, 0, 0, 0, 1, 0, 0, 0, 0, 1, 0, 0, 0, 0, 1); animation: 0.961538s linear -0.0373303s infinite normal forwards running animate-nltrwwb991; transform-box: view-box;"><path d="M551.04 4.69L551.04 4.69Q561.20 4.69 561.20 12.77L561.20 12.77Q561.20 17.81 556.44 20.41Q551.68 23.01 542.88 23.09L542.88 23.09Q542.72 25.97 542.72 27.65L542.72 27.65Q542.72 31.25 544.36 32.97Q546 34.69 548.48 34.69Q550.96 34.69 553 33.73Q555.04 32.77 556.24 31.45Q557.44 30.13 558.32 28.69L558.32 28.69Q559.92 26.05 559.92 25.33L559.92 25.33L561.36 25.97Q561.12 27.25 559.92 29.37Q558.72 31.49 557.28 32.85Q555.84 34.21 553.04 35.37Q550.24 36.53 546.80 36.53L546.80 36.53Q540.32 36.53 537 33.45Q533.68 30.37 533.68 25.01L533.68 25.01Q533.68 15.49 538.40 10.09Q543.12 4.69 551.04 4.69 zM559.20 12.77Q559.20 10.13 557.64 8.41Q556.08 6.69 553 6.69Q549.92 6.69 547 10.37Q544.08 14.05 543.12 21.25L543.12 21.25Q559.20 21.17 559.20 12.77L559.20 12.77" style="fill: rgb(230, 60, 117);" transform="translate(-294.360,-17.906)"></path></g><g class="path" style="opacity: 1; transform-origin: 286.2px 11.68px; transform: matrix3d(1, 0, 0, 0, 0, 1, 0, 0, 0, 0, 1, 0, 0, 0, 0, 1); animation: 0.961538s linear 0s infinite normal forwards running animate-nltrwwb991; transform-box: view-box;"><path d="M567.20 8.53L566 7.57Q568.40 4.69 572.04 4.69Q575.68 4.69 577.68 6.53Q579.68 8.37 579.68 11.73L579.68 11.73L579.68 12.21Q583.28 4.69 589.04 4.69L589.04 4.69Q595.20 4.69 595.20 11.09L595.20 11.09Q595.20 13.73 593.44 16.69Q591.68 19.65 589.92 22.33Q588.16 25.01 588.16 27.09L588.16 27.09L586.24 27.09Q586.24 24.13 589.68 19.09Q593.12 14.05 593.12 11.29Q593.12 8.53 592.04 7.53Q590.96 6.53 588.84 6.53Q586.72 6.53 584.68 8.37Q582.64 10.21 581.28 13.01L581.28 13.01Q579.12 17.17 578.40 19.81L578.40 19.81L578.40 19.89L575.52 35.81L565.92 35.81L571.20 6.29Q568.80 6.53 567.20 8.53L567.20 8.53" style="fill: rgb(230, 60, 117);" transform="translate(-294.360,-17.906)"></path></g></g><text dy="0.35em" fill="#e63c75" font-family="Sail" font-size="37">Software Engineer</text>
</g>
</g><style type="text/css">@keyframes animate-nltrwwb991 { 0.00% {transform: translate(0.00px,0.00px) rotate(0.00deg) scale(1.00, 1.00) skew(0deg, 0.00deg) ;opacity: 1.00;}2.00% {animation-timing-function: cubic-bezier(0.20,0.39,0.50,0.97);transform: translate(0.00px,-1.08px) rotate(0.00deg) ;}36.00% {animation-timing-function: cubic-bezier(0.50,0.03,0.80,0.61);transform: translate(0.00px,-10.00px) rotate(0.00deg) ;}72.00% {transform: translate(0.00px,0.00px) rotate(0.00deg) ;}74.00% {animation-timing-function: cubic-bezier(0.23,0.43,0.48,0.91);transform: translate(0.00px,0.00px) rotate(0.00deg) scale(1.00, 0.95) ;}86.00% {animation-timing-function: cubic-bezier(0.52,0.09,0.77,0.57);transform: translate(0.00px,0.00px) rotate(0.00deg) scale(1.00, 0.80) ;}100.00% {animation-timing-function: cubic-bezier(0.52,0.09,0.77,0.57);transform: translate(0.00px,0.00px) rotate(0.00deg) scale(1.00, 1.00) ;} }</style><!-- [ldio] generated by https://loading.io --></svg>